name rise34.3697peak60.0498fall86.3158.mot
datacolumns 19
datarows 21
range 5.85331400000000 5.88664800000000
endheader
time	ground_force1_vx	ground_force1_vy	ground_force1_vz	ground_force1_px	ground_force1_py	ground_force1_pz	ground_force2_vx	ground_force2_vy	ground_force2_vz	ground_force2_px	ground_force2_py	ground_force2_pz	ground_torque1_x	ground_torque1_y	ground_torque1_z	ground_torque2_x	ground_torque2_y	ground_torque2_z	
5.85331400000000	6.25869300000000	690.31692299999997	35.93532800000000	0.32174100000000	0.00000000000000	0.08588100000000	0.00000000000000	0.00000000000000	0.00000000000000	0.00000000000000	0.00000000000000	0.00000000000000	0.00000000000000	20.71238600000000	0.00000000000000	0.00000000000000	0.00000000000000	0.00000000000000	
5.85498000000000	5.85934400000000	690.80640000000005	35.97036500000000	0.32079000000000	0.00000000000000	0.08588900000000	0.00000000000000	0.00000000000000	0.00000000000000	0.00000000000000	0.00000000000000	0.00000000000000	0.00000000000000	20.75501100000000	0.00000000000000	0.00000000000000	0.00000000000000	0.00000000000000	
5.85664300000000	5.45335800000000	691.33092699999997	36.00671100000000	0.31984600000000	0.00000000000000	0.08589600000000	0.00000000000000	0.00000000000000	0.00000000000000	0.00000000000000	0.00000000000000	0.00000000000000	0.00000000000000	20.80080800000000	0.00000000000000	0.00000000000000	0.00000000000000	0.00000000000000	
5.85831200000000	5.04064200000000	691.88964399999998	36.04407300000000	0.31890800000000	0.00000000000000	0.08590100000000	0.00000000000000	0.00000000000000	0.00000000000000	0.00000000000000	0.00000000000000	0.00000000000000	0.00000000000000	20.84960300000000	0.00000000000000	0.00000000000000	0.00000000000000	0.00000000000000	
5.85997400000000	4.62111600000000	692.48176500000000	36.08217500000000	0.31797600000000	0.00000000000000	0.08590700000000	0.00000000000000	0.00000000000000	0.00000000000000	0.00000000000000	0.00000000000000	0.00000000000000	0.00000000000000	20.90123000000000	0.00000000000000	0.00000000000000	0.00000000000000	0.00000000000000	
5.86165000000000	4.19470900000000	693.10658300000000	36.12075100000000	0.31705000000000	0.00000000000000	0.08591100000000	0.00000000000000	0.00000000000000	0.00000000000000	0.00000000000000	0.00000000000000	0.00000000000000	0.00000000000000	20.95553000000000	0.00000000000000	0.00000000000000	0.00000000000000	0.00000000000000	
5.86331000000000	3.76136300000000	693.76346999999998	36.15955300000000	0.31613100000000	0.00000000000000	0.08591400000000	0.00000000000000	0.00000000000000	0.00000000000000	0.00000000000000	0.00000000000000	0.00000000000000	0.00000000000000	21.01235000000000	0.00000000000000	0.00000000000000	0.00000000000000	0.00000000000000	
5.86497500000000	3.32103000000000	694.45187899999996	36.19834600000000	0.31521700000000	0.00000000000000	0.08591700000000	0.00000000000000	0.00000000000000	0.00000000000000	0.00000000000000	0.00000000000000	0.00000000000000	0.00000000000000	21.07154500000000	0.00000000000000	0.00000000000000	0.00000000000000	0.00000000000000	
5.86664100000000	2.87366900000000	695.17134799999997	36.23691500000000	0.31431000000000	0.00000000000000	0.08591900000000	0.00000000000000	0.00000000000000	0.00000000000000	0.00000000000000	0.00000000000000	0.00000000000000	0.00000000000000	21.13297700000000	0.00000000000000	0.00000000000000	0.00000000000000	0.00000000000000	
5.86831500000000	2.41925200000000	695.92149800000004	36.27505900000000	0.31340800000000	0.00000000000000	0.08592000000000	0.00000000000000	0.00000000000000	0.00000000000000	0.00000000000000	0.00000000000000	0.00000000000000	0.00000000000000	21.19651500000000	0.00000000000000	0.00000000000000	0.00000000000000	0.00000000000000	
5.86997600000000	1.95775900000000	696.70203600000002	36.31259600000000	0.31251200000000	0.00000000000000	0.08592100000000	0.00000000000000	0.00000000000000	0.00000000000000	0.00000000000000	0.00000000000000	0.00000000000000	0.00000000000000	21.26203800000000	0.00000000000000	0.00000000000000	0.00000000000000	0.00000000000000	
5.87164200000000	1.48917600000000	697.51275099999998	36.34936400000000	0.31162200000000	0.00000000000000	0.08592000000000	0.00000000000000	0.00000000000000	0.00000000000000	0.00000000000000	0.00000000000000	0.00000000000000	0.00000000000000	21.32943000000000	0.00000000000000	0.00000000000000	0.00000000000000	0.00000000000000	
5.87331400000000	1.01350100000000	698.35351500000002	36.38521900000000	0.31073800000000	0.00000000000000	0.08591900000000	0.00000000000000	0.00000000000000	0.00000000000000	0.00000000000000	0.00000000000000	0.00000000000000	0.00000000000000	21.39858500000000	0.00000000000000	0.00000000000000	0.00000000000000	0.00000000000000	
5.87498000000000	0.53073600000000	699.22428400000001	36.42003600000000	0.30985800000000	0.00000000000000	0.08591800000000	0.00000000000000	0.00000000000000	0.00000000000000	0.00000000000000	0.00000000000000	0.00000000000000	0.00000000000000	21.46940400000000	0.00000000000000	0.00000000000000	0.00000000000000	0.00000000000000	
5.87664000000000	0.04089400000000	700.12508900000000	36.45371300000000	0.30898400000000	0.00000000000000	0.08591500000000	0.00000000000000	0.00000000000000	0.00000000000000	0.00000000000000	0.00000000000000	0.00000000000000	0.00000000000000	21.54179600000000	0.00000000000000	0.00000000000000	0.00000000000000	0.00000000000000	
5.87831200000000	-0.45600600000000	701.05604100000005	36.48616700000000	0.30811500000000	0.00000000000000	0.08591300000000	0.00000000000000	0.00000000000000	0.00000000000000	0.00000000000000	0.00000000000000	0.00000000000000	0.00000000000000	21.61567800000000	0.00000000000000	0.00000000000000	0.00000000000000	0.00000000000000	
5.87997900000000	-0.95994000000000	702.01732300000003	36.51733800000000	0.30725100000000	0.00000000000000	0.08590900000000	0.00000000000000	0.00000000000000	0.00000000000000	0.00000000000000	0.00000000000000	0.00000000000000	0.00000000000000	21.69097600000000	0.00000000000000	0.00000000000000	0.00000000000000	0.00000000000000	
5.88164300000000	-1.47087300000000	703.00918500000000	36.54718700000000	0.30639200000000	0.00000000000000	0.08590500000000	0.00000000000000	0.00000000000000	0.00000000000000	0.00000000000000	0.00000000000000	0.00000000000000	0.00000000000000	21.76762200000000	0.00000000000000	0.00000000000000	0.00000000000000	0.00000000000000	
5.88331600000000	-1.98876500000000	704.03194299999996	36.57569600000000	0.30553700000000	0.00000000000000	0.08590100000000	0.00000000000000	0.00000000000000	0.00000000000000	0.00000000000000	0.00000000000000	0.00000000000000	0.00000000000000	21.84555800000000	0.00000000000000	0.00000000000000	0.00000000000000	0.00000000000000	
5.88498100000000	-2.51356900000000	705.08597299999997	36.60287100000000	0.30468600000000	0.00000000000000	0.08589700000000	0.00000000000000	0.00000000000000	0.00000000000000	0.00000000000000	0.00000000000000	0.00000000000000	0.00000000000000	21.92473000000000	0.00000000000000	0.00000000000000	0.00000000000000	0.00000000000000	
5.88664800000000	-3.04523100000000	706.17170399999998	36.62874100000000	0.30384000000000	0.00000000000000	0.08589200000000	0.00000000000000	0.00000000000000	0.00000000000000	0.00000000000000	0.00000000000000	0.00000000000000	0.00000000000000	22.00509500000000	0.00000000000000	0.00000000000000	0.00000000000000	0.00000000000000	
